<svg width="751" height="257" viewBox="0 0 751 257" fill="none" xmlns="http://www.w3.org/2000/svg">
<mask id="mask0_9_232" style="mask-type:alpha" maskUnits="userSpaceOnUse" x="0" y="0" width="223" height="257">
<path d="M111.033 54.3117L175.103 91.1074V164.993L111.21 202.023L47.1407 165.286V91.4013L111.033 54.3117ZM111.033 0L87.5219 13.6367L23.5116 50.7262L0 64.363V91.5188V165.345V192.501L23.5116 206.02L87.5806 242.816L111.092 256.335L134.604 242.698L198.497 205.609L222.008 192.031V164.875V90.9898V63.8339L198.497 50.3148L134.427 13.5192L110.916 0H111.033Z" fill="black"/>
</mask>
<g mask="url(#mask0_9_232)">
<path fill-rule="evenodd" clip-rule="evenodd" d="M-7.09142 161.808C2.2943 145.551 23.0815 139.981 39.338 149.367L127.533 200.287C143.789 209.672 149.359 230.459 139.974 246.716C130.588 262.972 109.801 268.542 93.5443 259.157L5.34931 208.237C-10.9072 198.852 -16.4771 178.064 -7.09142 161.808Z" fill="#B167FB"/>
<path fill-rule="evenodd" clip-rule="evenodd" d="M22.3437 212.664C3.57229 212.664 -11.645 197.447 -11.645 178.676L-11.645 76.837C-11.645 58.0656 3.57229 42.8483 22.3437 42.8483C41.1152 42.8483 56.3324 58.0655 56.3324 76.837L56.3324 178.676C56.3324 197.447 41.1152 212.664 22.3437 212.664Z" fill="#456FF9"/>
<path fill-rule="evenodd" clip-rule="evenodd" d="M-7.11009 92.7372C-16.4958 76.4807 -10.9259 55.6935 5.33064 46.3078L93.5256 -4.6116C109.782 -13.9973 130.569 -8.42741 139.955 7.82913C149.341 24.0857 143.771 44.8728 127.514 54.2585L39.3193 105.178C23.0628 114.564 2.27563 108.994 -7.11009 92.7372Z" fill="#91E9F0"/>
<path fill-rule="evenodd" clip-rule="evenodd" d="M228.15 92.7372C237.536 76.4807 231.966 55.6935 215.709 46.3078L127.514 -4.6116C111.258 -13.9973 90.4708 -8.42741 81.0851 7.82913C71.6994 24.0857 77.2693 44.8728 93.5258 54.2585L181.721 105.178C197.977 114.564 218.764 108.994 228.15 92.7372Z" fill="#59CA56"/>
<path fill-rule="evenodd" clip-rule="evenodd" d="M198.696 212.664C217.468 212.664 232.685 197.447 232.685 178.676L232.685 76.837C232.685 58.0656 217.468 42.8483 198.696 42.8483C179.925 42.8483 164.708 58.0655 164.708 76.837L164.708 178.676C164.708 197.447 179.925 212.664 198.696 212.664Z" fill="#FCC51F"/>
<path fill-rule="evenodd" clip-rule="evenodd" d="M228.131 161.808C218.746 145.551 197.959 139.981 181.702 149.367L93.5071 200.287C77.2506 209.672 71.6807 230.459 81.0664 246.716C90.4521 262.972 111.239 268.542 127.496 259.157L215.691 208.237C231.947 198.852 237.517 178.064 228.131 161.808Z" fill="#F48554"/>
<path fill-rule="evenodd" clip-rule="evenodd" d="M102.478 262.747C99.4195 261.999 96.4146 260.809 93.5503 259.156L92.3848 258.483C87.8553 255.634 83.934 251.671 81.0725 246.715C71.6868 230.458 77.2567 209.671 93.5132 200.285L110.526 190.463L127.539 200.285C143.796 209.671 149.365 230.458 139.98 246.715C137.118 251.671 133.197 255.634 128.667 258.483L127.502 259.156C124.638 260.809 121.633 261.999 118.574 262.747C115.949 263.386 113.246 263.714 110.526 263.715C107.806 263.714 105.104 263.386 102.478 262.747Z" fill="#B167FB"/>
</g>
<path d="M276.608 58.2556L284.408 58.2556C284.168 50.9355 277.608 48.8156 269.368 48.8156C261.008 48.8156 254.848 51.0556 254.848 57.6556C254.848 62.9356 258.328 65.0156 263.608 65.6556L272.968 66.8556C275.448 67.1756 277.248 67.8556 277.248 70.1356C277.288 72.5756 274.528 73.7756 269.848 73.7756C265.408 73.7756 262.048 72.8556 261.808 68.6156H254.008C254.248 76.9356 260.608 79.0156 269.568 79.0156C279.088 79.0156 285.368 76.9356 285.368 69.6956C285.368 64.0556 281.888 61.8956 276.608 61.2556L266.528 60.0556C264.208 59.7756 262.768 59.1356 262.768 57.2556C262.768 55.0556 265.048 53.9756 269.168 53.9756C273.248 53.9756 276.408 54.8956 276.608 58.2556Z" fill="#060E31"/>
<path d="M309.046 49.6156H289.366V78.1756H296.326V67.8156H309.046C316.406 67.8156 319.486 64.8956 319.486 58.7356C319.486 52.5356 316.406 49.6156 309.046 49.6156ZM307.646 62.5356H296.326V55.2556H307.646C310.606 55.2556 311.886 56.4156 311.886 58.8956C311.886 61.4156 310.606 62.5356 307.646 62.5356Z" fill="#060E31"/>
<path d="M347.436 66.7756V66.5356C350.996 65.7356 353.876 63.7756 353.876 58.5356C353.876 52.4956 350.796 49.6156 343.436 49.6156H323.116V78.1756H330.076V67.7356H340.236L346.556 78.1756H354.556L347.436 66.7756ZM342.236 62.2956H330.076V55.4556H342.236C344.956 55.4556 346.156 56.5356 346.156 58.8556C346.156 61.1756 344.956 62.2956 342.236 62.2956Z" fill="#060E31"/>
<path d="M365.076 78.1756V49.6156L358.116 49.6156V78.1756H365.076Z" fill="#060E31"/>
<path d="M394.46 49.6156V69.2556H394.22L378.66 49.6156H370.42V78.1756L377.06 78.1756V58.2956H377.26L393.14 78.1756H401.1V49.6156H394.46Z" fill="#060E31"/>
<path d="M439.236 62.6156H423.556V67.6156H431.356C431.076 70.3756 428.756 73.3356 423.036 73.3356C416.676 73.3356 412.916 70.0956 412.916 63.8956C412.916 57.8556 416.676 54.6156 422.716 54.6156C428.996 54.6156 430.556 57.5356 430.956 59.2956H439.076C438.516 53.2556 433.236 48.8156 422.716 48.8156C412.476 48.8156 405.276 53.6556 405.276 63.8956C405.276 74.1756 412.556 79.0156 423.036 79.0156C427.516 79.0156 431.396 77.6556 433.996 74.4956V78.1756H439.236V62.6156Z" fill="#060E31"/>
<path d="M469.16 69.8156L476.2 67.2956C481.24 65.6956 485.2 63.5356 485.2 58.0556C485.2 51.4556 479.52 49.5356 471.16 49.5356C462.88 49.5356 457.04 52.3356 456.72 60.0956L464.28 60.0956C464.52 55.9756 467.96 54.7756 471.4 54.7756C474.84 54.7756 477.56 55.5756 477.56 58.2956C477.56 60.4556 475.68 61.5356 472.8 62.6556L466.8 65.1356C462.32 66.8956 456.4 69.6556 456.4 77.3356V78.1756H485.28V72.8956H464.52C464.92 71.9356 466.64 70.6956 469.16 69.8156Z" fill="#060E31"/>
<path d="M504.476 49.5356C493.836 49.5356 488.596 54.8556 488.596 64.2556C488.596 73.6556 493.836 78.9756 504.476 78.9756C515.076 78.9756 520.316 73.6556 520.316 64.2556C520.316 54.8556 515.076 49.5356 504.476 49.5356ZM504.476 73.6156C498.516 73.6156 495.916 70.2956 495.916 64.2556C495.916 58.2156 498.516 54.8956 504.476 54.8956C510.396 54.8956 513.036 58.2156 513.036 64.2556C513.036 70.2956 510.396 73.6156 504.476 73.6156Z" fill="#060E31"/>
<path d="M535.723 69.8156L542.763 67.2956C547.803 65.6956 551.763 63.5356 551.763 58.0556C551.763 51.4556 546.083 49.5356 537.723 49.5356C529.443 49.5356 523.603 52.3356 523.283 60.0956H530.843C531.083 55.9756 534.523 54.7756 537.963 54.7756C541.403 54.7756 544.123 55.5756 544.123 58.2956C544.123 60.4556 542.243 61.5356 539.363 62.6556L533.363 65.1356C528.883 66.8956 522.963 69.6556 522.963 77.3356V78.1756H551.843V72.8956H531.083C531.483 71.9356 533.203 70.6956 535.723 69.8156Z" fill="#060E31"/>
<path d="M579.039 63.6556V63.4556C581.799 62.8956 583.319 60.8556 583.319 57.6156C583.319 51.5356 578.319 49.5356 569.239 49.5356C560.919 49.5356 555.799 52.0956 555.359 58.8156H562.599C562.919 55.7756 565.519 54.6156 569.239 54.6156C572.919 54.6156 575.959 55.4156 575.959 57.9356C575.959 60.4156 574.279 61.4556 570.719 61.4556H565.639V66.2556H570.399C574.559 66.2556 576.519 67.2956 576.519 70.0956C576.519 72.9356 573.519 73.7356 569.239 73.7356C564.839 73.7356 562.239 72.4556 561.999 68.9756H554.439C554.759 76.1756 559.479 78.9756 569.239 78.9756C579.759 78.9756 584.199 76.6556 584.199 70.2956C584.199 66.4556 582.359 64.4156 579.039 63.6556Z" fill="#060E31"/>
<path d="M296.168 113.696L309.224 113.696C308.712 102.304 298.728 95.1996 282.856 95.1996C267.304 95.1996 255.656 102.944 255.656 119.328C255.656 135.776 267.304 143.52 282.856 143.52C298.728 143.52 309.032 136.416 309.352 124.064L296.168 124.064C295.848 129.696 292.072 134.24 282.856 134.24C273.896 134.24 267.88 129.056 267.88 119.328C267.88 109.664 273.896 104.48 282.856 104.48C292.072 104.48 295.848 109.152 296.168 113.696Z" fill="#060E31"/>
<path d="M353.964 96.4795V114.208H327.148V96.4795L316.012 96.4795V142.176H327.148V123.424L353.964 123.36V142.176H365.1V96.4795L353.964 96.4795Z" fill="#060E31"/>
<path d="M414.724 142.176H427.012L405.444 96.4795H391.364L369.732 142.176H381.892L385.86 133.408L410.756 133.408L414.724 142.176ZM389.764 124.768L398.148 106.336H398.468L406.852 124.768H389.764Z" fill="#060E31"/>
<path d="M442.711 142.176V96.4795H431.575V142.176H442.711Z" fill="#060E31"/>
<path d="M489.726 96.4795V127.904H489.342L464.446 96.4795H451.262V142.176H461.886V110.368H462.206L487.614 142.176H500.35V96.4795L489.726 96.4795Z" fill="#060E31"/>
<path d="M552.087 142.176V133.024H520.023V96.4795H508.887V142.176H552.087Z" fill="#060E31"/>
<path d="M569.648 142.176V96.4795H558.512V142.176H569.648Z" fill="#060E31"/>
<path d="M616.664 96.4795V127.904H616.28L591.384 96.4795H578.2V142.176H588.824V110.368H589.144L614.552 142.176H627.288V96.4795H616.664Z" fill="#060E31"/>
<path d="M665.905 112.48L684.017 96.4795L669.681 96.4795L646.961 117.024V96.4795H635.825V142.176H646.961V128.992L657.649 119.648L673.329 142.176H686.961L665.905 112.48Z" fill="#060E31"/>
<path d="M295.464 160.48V178.208H268.648V160.48H257.512V206.176H268.648V187.424L295.464 187.36V206.176H306.6V160.48H295.464Z" fill="#060E31"/>
<path d="M356.224 206.176H368.512L346.944 160.48H332.864L311.232 206.176H323.392L327.36 197.408L352.256 197.408L356.224 206.176ZM331.264 188.768L339.648 170.336H339.968L348.352 188.768L331.264 188.768Z" fill="#060E31"/>
<path d="M407.668 177.696H420.724C420.212 166.304 410.228 159.2 394.356 159.2C378.804 159.2 367.156 166.944 367.156 183.328C367.156 199.776 378.804 207.52 394.356 207.52C410.228 207.52 420.532 200.416 420.852 188.064H407.668C407.348 193.696 403.572 198.24 394.356 198.24C385.396 198.24 379.38 193.056 379.38 183.328C379.38 173.664 385.396 168.48 394.356 168.48C403.572 168.48 407.348 173.152 407.668 177.696Z" fill="#060E31"/>
<path d="M457.592 176.48L475.704 160.48L461.368 160.48L438.648 181.024V160.48H427.512V206.176H438.648V192.992L449.336 183.648L465.016 206.176H478.648L457.592 176.48Z" fill="#060E31"/>
<path d="M524.349 206.176H536.637L515.069 160.48H500.989L479.357 206.176H491.517L495.485 197.408L520.381 197.408L524.349 206.176ZM499.389 188.768L507.773 170.336H508.093L516.477 188.768H499.389Z" fill="#060E31"/>
<path d="M577.25 160.48H529.698V169.76H547.938V206.176H559.074V169.76H577.25V160.48Z" fill="#060E31"/>
<path d="M620.964 160.48V178.208H594.148V160.48H583.012V206.176H594.148V187.424L620.964 187.36V206.176H632.1V160.48H620.964Z" fill="#060E31"/>
<path d="M666.876 159.2C650.492 159.2 638.844 166.944 638.844 183.328C638.844 199.776 650.492 207.52 666.876 207.52C683.196 207.52 694.844 199.776 694.844 183.328C694.844 166.944 683.196 159.2 666.876 159.2ZM666.876 198.24C657.084 198.24 651.068 193.056 651.068 183.328C651.068 173.664 657.084 168.48 666.876 168.48C676.604 168.48 682.684 173.664 682.684 183.328C682.684 193.056 676.604 198.24 666.876 198.24Z" fill="#060E31"/>
<path d="M740.039 160.48V191.904H739.655L714.759 160.48H701.575V206.176H712.199V174.368H712.519L737.927 206.176H750.663V160.48L740.039 160.48Z" fill="#060E31"/>
</svg>
