<svg width="54" height="54" viewBox="0 0 54 54" fill="none" xmlns="http://www.w3.org/2000/svg">
<g id="Group 9">
<g id="Group 9_2">
<g id="Group 7">
<path id="Ellipse 4" d="M54 27C54 29.2649 53.715 31.5209 53.1518 33.7146L27 27H54Z" fill="#004D44"/>
<path id="Ellipse 5" d="M46.0919 7.90812C47.6934 9.50966 49.0871 11.3064 50.24 13.2559L27 27L46.0919 7.90812Z" fill="#004D44"/>
<path id="Ellipse 6" d="M27 0C29.2649 2.7009e-08 31.5209 0.28499 33.7146 0.848256L27 27L27 0Z" fill="#004D44"/>
<path id="Ellipse 7" d="M7.90812 7.90812C9.50966 6.30657 11.3064 4.91291 13.2559 3.75997L27 27L7.90812 7.90812Z" fill="#004D44"/>
<path id="Ellipse 8" d="M0 27C1.98007e-07 24.7351 0.284991 22.4791 0.848256 20.2854L27 27L0 27Z" fill="#004D44"/>
<path id="Ellipse 9" d="M7.90812 46.0919C6.30657 44.4903 4.91291 42.6936 3.75996 40.7441L27 27L7.90812 46.0919Z" fill="#004D44"/>
<path id="Ellipse 10" d="M27 54C24.7351 54 22.4791 53.715 20.2854 53.1518L27 27L27 54Z" fill="#004D44"/>
<path id="Ellipse 11" d="M46.0919 46.0919C44.4903 47.6934 42.6936 49.0871 40.7441 50.24L27 27L46.0919 46.0919Z" fill="#004D44"/>
</g>
<g id="Group 8">
<path id="Ellipse 4_2" d="M45.9544 18.9544C46.6293 20.5444 47.1014 22.213 47.3597 23.9209L27 27L45.9544 18.9544Z" fill="#004D44"/>
<path id="Ellipse 5_2" d="M34.7136 7.90813C36.3152 8.5552 37.8289 9.40121 39.2192 10.4262L27 27L34.7136 7.90813Z" fill="#1DE9B6"/>
<path id="Ellipse 6_2" d="M18.9544 8.04566C20.5444 7.37074 22.213 6.89857 23.9209 6.64028L27 27L18.9544 8.04566Z" fill="#004D44"/>
<path id="Ellipse 7_2" d="M7.90812 19.2864C8.55518 17.6849 9.4012 16.1711 10.4262 14.7808L27 27L7.90812 19.2864Z" fill="#1DE9B6"/>
<path id="Ellipse 8_2" d="M8.04565 35.0457C7.37073 33.4557 6.89856 31.787 6.64026 30.0791L27 27L8.04565 35.0457Z" fill="#004D44"/>
<path id="Ellipse 9_2" d="M19.2864 46.0919C17.6848 45.4448 16.1711 44.5988 14.7808 43.5738L27 27L19.2864 46.0919Z" fill="#1DE9B6"/>
<path id="Ellipse 10_2" d="M35.0456 45.9544C33.4556 46.6293 31.787 47.1015 30.0791 47.3598L27 27L35.0456 45.9544Z" fill="#004D44"/>
<path id="Ellipse 11_2" d="M46.0919 34.7136C45.4448 36.3152 44.5988 37.8289 43.5738 39.2193L27 27L46.0919 34.7136Z" fill="#1DE9B6"/>
</g>
</g>
</g>
</svg>
