<svg xmlns="http://www.w3.org/2000/svg" width="152" height="92" viewBox="0 0 152 92" fill="none"><script xmlns=""/>
<path d="M43.2 33.6998C43.2 35.5498 43.4 37.0498 43.75 38.1498C44.15 39.2498 44.65 40.4498 45.35 41.7498C45.6 42.1498 45.7 42.5498 45.7 42.8998C45.7 43.3998 45.4 43.8998 44.75 44.3998L41.6 46.4998C41.15 46.7998 40.7 46.9498 40.3 46.9498C39.8 46.9498 39.3 46.6998 38.8 46.2498C38.1 45.4998 37.5 44.6998 37 43.8998C36.5 43.0498 36 42.0998 35.45 40.9498C31.55 45.5498 26.65 47.8498 20.75 47.8498C16.55 47.8498 13.2 46.6498 10.75 44.2498C8.29999 41.8498 7.04999 38.6498 7.04999 34.6498C7.04999 30.3998 8.54999 26.9498 11.6 24.3498C14.65 21.7498 18.7 20.4498 23.85 20.4498C25.55 20.4498 27.3 20.5998 29.15 20.8498C31 21.0998 32.9 21.4998 34.9 21.9498V18.2998C34.9 14.4998 34.1 11.8498 32.55 10.2998C30.95 8.7498 28.25 7.9998 24.4 7.9998C22.65 7.9998 20.85 8.1998 19 8.6498C17.15 9.0998 15.35 9.6498 13.6 10.3498C12.8 10.6998 12.2 10.8998 11.85 10.9998C11.5 11.0998 11.25 11.1498 11.05 11.1498C10.35 11.1498 9.99999 10.6498 9.99999 9.5998V7.1498C9.99999 6.3498 10.1 5.7498 10.35 5.3998C10.6 5.0498 11.05 4.6998 11.75 4.3498C13.5 3.4498 15.6 2.6998 18.05 2.0998C20.5 1.4498 23.1 1.1498 25.85 1.1498C31.8 1.1498 36.15 2.4998 38.95 5.1998C41.7 7.8998 43.1 11.9998 43.1 17.4998V33.6998H43.2ZM22.9 41.2998C24.55 41.2998 26.25 40.9998 28.05 40.3998C29.85 39.7998 31.45 38.6998 32.8 37.1998C33.6 36.2498 34.2 35.1998 34.5 33.9998C34.8 32.7998 35 31.3498 35 29.6498V27.5498C33.55 27.1998 32 26.8998 30.4 26.6998C28.8 26.4998 27.25 26.3998 25.7 26.3998C22.35 26.3998 19.9 27.0498 18.25 28.3998C16.6 29.7498 15.8 31.6498 15.8 34.1498C15.8 36.4998 16.4 38.2498 17.65 39.4498C18.85 40.6998 20.6 41.2998 22.9 41.2998ZM63.05 46.6998C62.15 46.6998 61.55 46.5498 61.15 46.1998C60.75 45.8998 60.4 45.1998 60.1 44.2498L48.35 5.5998C48.05 4.5998 47.9 3.9498 47.9 3.5998C47.9 2.7998 48.3 2.3498 49.1 2.3498H54C54.95 2.3498 55.6 2.4998 55.95 2.8498C56.35 3.1498 56.65 3.8498 56.95 4.7998L65.35 37.8998L73.15 4.7998C73.4 3.7998 73.7 3.1498 74.1 2.8498C74.5 2.5498 75.2 2.3498 76.1 2.3498H80.1C81.05 2.3498 81.7 2.4998 82.1 2.8498C82.5 3.1498 82.85 3.8498 83.05 4.7998L90.95 38.2998L99.6 4.7998C99.9 3.7998 100.25 3.1498 100.6 2.8498C101 2.5498 101.65 2.3498 102.55 2.3498H107.2C108 2.3498 108.45 2.7498 108.45 3.5998C108.45 3.8498 108.4 4.0998 108.35 4.3998C108.3 4.6998 108.2 5.0998 108 5.6498L95.95 44.2998C95.65 45.2998 95.3 45.9498 94.9 46.2498C94.5 46.5498 93.85 46.7498 93 46.7498H88.7C87.75 46.7498 87.1 46.5998 86.7 46.2498C86.3 45.8998 85.95 45.2498 85.75 44.2498L78 11.9998L70.3 44.1998C70.05 45.1998 69.75 45.8498 69.35 46.1998C68.95 46.5498 68.25 46.6998 67.35 46.6998H63.05ZM127.3 48.0498C124.7 48.0498 122.1 47.7498 119.6 47.1498C117.1 46.5498 115.15 45.8998 113.85 45.1498C113.05 44.6998 112.5 44.1998 112.3 43.7498C112.1 43.2998 112 42.7998 112 42.3498V39.7998C112 38.7498 112.4 38.2498 113.15 38.2498C113.45 38.2498 113.75 38.2998 114.05 38.3998C114.35 38.4998 114.8 38.6998 115.3 38.8998C117 39.6498 118.85 40.2498 120.8 40.6498C122.8 41.0498 124.75 41.2498 126.75 41.2498C129.9 41.2498 132.35 40.6998 134.05 39.5998C135.75 38.4998 136.65 36.8998 136.65 34.8498C136.65 33.4498 136.2 32.2998 135.3 31.3498C134.4 30.3998 132.7 29.5498 130.25 28.7498L123 26.4998C119.35 25.3498 116.65 23.6498 115 21.3998C113.35 19.1998 112.5 16.7498 112.5 14.1498C112.5 12.0498 112.95 10.1998 113.85 8.5998C114.75 6.9998 115.95 5.5998 117.45 4.4998C118.95 3.3498 120.65 2.4998 122.65 1.8998C124.65 1.2998 126.75 1.0498 128.95 1.0498C130.05 1.0498 131.2 1.0998 132.3 1.2498C133.45 1.3998 134.5 1.5998 135.55 1.7998C136.55 2.0498 137.5 2.2998 138.4 2.5998C139.3 2.8998 140 3.1998 140.5 3.4998C141.2 3.8998 141.7 4.2998 142 4.7498C142.3 5.1498 142.45 5.6998 142.45 6.3998V8.7498C142.45 9.7998 142.05 10.3498 141.3 10.3498C140.9 10.3498 140.25 10.1498 139.4 9.7498C136.55 8.4498 133.35 7.7998 129.8 7.7998C126.95 7.7998 124.7 8.2498 123.15 9.1998C121.6 10.1498 120.8 11.5998 120.8 13.6498C120.8 15.0498 121.3 16.2498 122.3 17.1998C123.3 18.1498 125.15 19.0998 127.8 19.9498L134.9 22.1998C138.5 23.3498 141.1 24.9498 142.65 26.9998C144.2 29.0498 144.95 31.3998 144.95 33.9998C144.95 36.1498 144.5 38.0998 143.65 39.7998C142.75 41.4998 141.55 42.9998 140 44.1998C138.45 45.4498 136.6 46.3498 134.45 46.9998C132.2 47.6998 129.85 48.0498 127.3 48.0498Z" fill="white"/>
<path fill-rule="evenodd" clip-rule="evenodd" d="M136.75 72.3498C120.3 84.4998 96.4 90.9498 75.85 90.9498C47.05 90.9498 21.1 80.2998 1.49999 62.5998C-0.0500071 61.1998 1.34999 59.2998 3.19999 60.3998C24.4 72.6998 50.55 80.1498 77.6 80.1498C95.85 80.1498 115.9 76.3498 134.35 68.5498C137.1 67.2998 139.45 70.3498 136.75 72.3498Z" fill="#FF9900"/>
<path fill-rule="evenodd" clip-rule="evenodd" d="M143.6 64.5496C141.5 61.8496 129.7 63.2496 124.35 63.8996C122.75 64.0996 122.5 62.6996 123.95 61.6496C133.35 55.0496 148.8 56.9496 150.6 59.1496C152.4 61.3996 150.1 76.8496 141.3 84.2496C139.95 85.3996 138.65 84.7996 139.25 83.2996C141.25 78.3496 145.7 67.1996 143.6 64.5496Z" fill="#FF9900"/>
</svg>