<svg xmlns="http://www.w3.org/2000/svg" width="272" height="39" viewBox="0 0 272 39" fill="none"><script xmlns=""/>
<path d="M0 0H4.97694V19.4743H10.3158V0H15.2928V38.251H10.3158V23.9988H4.97694V38.251H0V0Z" fill="#FFCD4D"/>
<path d="M26.1933 38.7034C23.7501 38.7034 21.8799 38.0097 20.5829 36.6221C19.2859 35.2346 18.6374 33.274 18.6374 30.7403V14.0902C18.6374 11.5564 19.2859 9.59582 20.5829 8.20831C21.8799 6.8208 23.7501 6.12704 26.1933 6.12704C28.6365 6.12704 30.5066 6.8208 31.8037 8.20831C33.1007 9.59582 33.7492 11.5564 33.7492 14.0902V30.7403C33.7492 33.274 33.1007 35.2346 31.8037 36.6221C30.5066 38.0097 28.6365 38.7034 26.1933 38.7034ZM26.1933 34.1789C27.9126 34.1789 28.7722 33.1383 28.7722 31.057V13.7734C28.7722 11.6922 27.9126 10.6515 26.1933 10.6515C24.474 10.6515 23.6143 11.6922 23.6143 13.7734V31.057C23.6143 33.1383 24.474 34.1789 26.1933 34.1789Z" fill="#FFCD4D"/>
<path d="M37.115 6.57949H43.3588L48.2 25.5371H48.2905V6.57949H54.8977V38.251H47.6118L41.6395 15.1308H41.549V38.251H37.115V6.57949Z" fill="#FFCD4D"/>
<path d="M87.4241 25.2571L81.6987 6.48041H86.9924L90.3858 18.1084H90.4763L93.8696 6.48041H98.7108L92.6933 24.6689V38.1519H87.7163L87.4241 25.2571Z" fill="#FFCD4D"/>
<path d="M100.953 6.48041H108.283C110.756 6.48041 112.611 7.144 113.848 8.47119C115.084 9.79837 115.703 11.7439 115.703 14.3078V17.4297C115.703 19.9936 115.084 21.9391 113.848 23.2663C112.611 24.5935 110.756 25.2571 108.283 25.2571H105.93V38.1519H100.953V6.48041ZM108.283 20.7326C109.097 20.7326 109.7 20.5063 110.092 20.0539C110.515 19.6014 110.726 18.8323 110.726 17.7464V13.9911C110.726 12.9052 110.515 12.136 110.092 11.6836C109.7 11.2311 109.097 11.0049 108.283 11.0049H105.93V20.7326H108.283Z" fill="#FFCD4D"/>
<path d="M125.6 38.6043C123.157 38.6043 121.286 37.9106 119.989 36.5231C118.692 35.1355 118.044 33.1749 118.044 30.6412V13.9911C118.044 11.4574 118.692 9.49674 119.989 8.10923C121.286 6.72172 123.157 6.02796 125.6 6.02796C128.043 6.02796 129.913 6.72172 131.21 8.10923C132.507 9.49674 133.156 11.4574 133.156 13.9911V30.6412C133.156 33.1749 132.507 35.1355 131.21 36.5231C129.913 37.9106 128.043 38.6043 125.6 38.6043ZM125.6 34.0798C127.319 34.0798 128.179 33.0392 128.179 30.9579V13.6744C128.179 11.5931 127.319 10.5525 125.6 10.5525C123.88 10.5525 123.021 11.5931 123.021 13.6744V30.9579C123.021 33.0392 123.88 34.0798 125.6 34.0798Z" fill="#FFCD4D"/>
<path d="M140.236 11.0049H135.033V6.48041H150.416V11.0049H145.213V38.1519H140.236V11.0049Z" fill="#FFCD4D"/>
<path d="M160.072 6.48041H173.238V11.0049H165.049V19.8277H171.474V24.3522H165.049V38.1519H160.072V6.48041Z" fill="#FFCD4D"/>
<path d="M175.625 6.48041H180.602V38.1519H175.625V6.48041Z" fill="#FFCD4D"/>
<path d="M184.329 6.48041H190.573L195.414 25.438H195.505V6.48041H199.939V38.1519H194.826L188.854 15.0317H188.763V38.1519H184.329V6.48041Z" fill="#FFCD4D"/>
<path d="M207.484 6.48041H214.225L219.383 38.1519H214.406L213.501 31.8628V31.9533H207.846L206.941 38.1519H202.326L207.484 6.48041ZM212.913 27.655L210.696 12.0003H210.605L208.434 27.655H212.913Z" fill="#FFCD4D"/>
<path d="M221.798 6.48041H228.041L232.883 25.438H232.973V6.48041H237.407V38.1519H232.294L226.322 15.0317H226.232V38.1519H221.798V6.48041Z" fill="#FFCD4D"/>
<path d="M248.119 38.6043C245.736 38.6043 243.911 37.9257 242.645 36.5683C241.408 35.211 240.789 33.2956 240.789 30.8222V13.8101C240.789 11.3367 241.408 9.42133 242.645 8.06398C243.911 6.70663 245.736 6.02796 248.119 6.02796C250.502 6.02796 252.312 6.70663 253.549 8.06398C254.815 9.42133 255.449 11.3367 255.449 13.8101V17.1582H250.743V13.4934C250.743 11.5328 249.914 10.5525 248.255 10.5525C246.596 10.5525 245.766 11.5328 245.766 13.4934V31.1842C245.766 33.1146 246.596 34.0798 248.255 34.0798C249.914 34.0798 250.743 33.1146 250.743 31.1842V26.3429H255.449V30.8222C255.449 33.2956 254.815 35.211 253.549 36.5683C252.312 37.9257 250.502 38.6043 248.119 38.6043Z" fill="#FFCD4D"/>
<path d="M258.427 6.48041H272V11.0049H263.403V19.3752H270.235V23.8997H263.403V33.6274H272V38.1519H258.427V6.48041Z" fill="#FFCD4D"/>
<path d="M64.1093 12.5834C64.1093 10.1239 66.1032 8.13001 68.5627 8.13001H73.3587C75.8183 8.13001 77.8121 10.1239 77.8121 12.5834H64.1093Z" fill="#FFCD4D"/>
<path d="M59.3132 18.064C59.3132 15.6044 61.307 13.6106 63.7666 13.6106H78.1545C80.6141 13.6106 82.6079 15.6044 82.6079 18.064H59.3132Z" fill="#FFCD4D"/>
<path d="M59.9975 19.0925C58.2948 19.0925 56.9144 20.4728 56.9144 22.1756C56.9144 23.8784 58.2948 25.2587 59.9975 25.2587H81.922C83.6248 25.2587 85.0052 23.8784 85.0052 22.1756C85.0052 20.4728 83.6248 19.0925 81.922 19.0925H59.9975Z" fill="#FFCD4D"/>
<path d="M59.6547 26.6288C59.6547 29.0883 61.6485 31.0822 64.1081 31.0822H78.496C80.9556 31.0822 82.9495 29.0883 82.9495 26.6288H59.6547Z" fill="#FFCD4D"/>
<path d="M68.5627 36.5628C66.1032 36.5628 64.1093 34.5689 64.1093 32.1093H78.1547C78.1547 34.5689 76.1609 36.5628 73.7013 36.5628H68.5627Z" fill="#FFCD4D"/>
</svg>